<?xml version="1.0" encoding="utf-8"?>
<!-- Generator: Adobe Illustrator 23.0.5, SVG Export Plug-In . SVG Version: 6.00 Build 0)  -->
<svg version="1.1" id="Layer_1" xmlns="http://www.w3.org/2000/svg" xmlns:xlink="http://www.w3.org/1999/xlink" x="0px" y="0px"
	 viewBox="0 0 1920 1080" style="enable-background:new 0 0 1920 1080;" xml:space="preserve">
<style type="text/css">
	.st0{fill:#878787;}
	.st1{clip-path:url(#SVGID_2_);}
	.st2{fill:#0D1117;}
	.st3{opacity:0.44;}
	.st4{opacity:1.449280e-02;fill:none;stroke:#FFFFFF;stroke-width:2;stroke-opacity:0.6;enable-background:new    ;}
	.st5{opacity:2.898550e-02;fill:none;stroke:#FFFFFF;stroke-width:2;stroke-opacity:0.6;enable-background:new    ;}
	.st6{opacity:4.347830e-02;fill:none;stroke:#FFFFFF;stroke-width:2;stroke-opacity:0.6;enable-background:new    ;}
	.st7{opacity:5.797100e-02;fill:none;stroke:#FFFFFF;stroke-width:2;stroke-opacity:0.6;enable-background:new    ;}
	.st8{opacity:7.246380e-02;fill:none;stroke:#FFFFFF;stroke-width:2;stroke-opacity:0.6;enable-background:new    ;}
	.st9{opacity:8.695650e-02;fill:none;stroke:#FFFFFF;stroke-width:2;stroke-opacity:0.6;enable-background:new    ;}
	.st10{opacity:0.1014;fill:none;stroke:#FFFFFF;stroke-width:2;stroke-opacity:0.6;enable-background:new    ;}
	.st11{opacity:0.1159;fill:none;stroke:#FFFFFF;stroke-width:2;stroke-opacity:0.6;enable-background:new    ;}
	.st12{opacity:0.1304;fill:none;stroke:#FFFFFF;stroke-width:2;stroke-opacity:0.6;enable-background:new    ;}
	.st13{opacity:0.1449;fill:none;stroke:#FFFFFF;stroke-width:2;stroke-opacity:0.6;enable-background:new    ;}
	.st14{opacity:0.1594;fill:none;stroke:#FFFFFF;stroke-width:2;stroke-opacity:0.6;enable-background:new    ;}
	.st15{opacity:0.1739;fill:none;stroke:#FFFFFF;stroke-width:2;stroke-opacity:0.6;enable-background:new    ;}
	.st16{opacity:0.1884;fill:none;stroke:#FFFFFF;stroke-width:2;stroke-opacity:0.6;enable-background:new    ;}
	.st17{opacity:0.2029;fill:none;stroke:#FFFFFF;stroke-width:2;stroke-opacity:0.6;enable-background:new    ;}
	.st18{opacity:0.2174;fill:none;stroke:#FFFFFF;stroke-width:2;stroke-opacity:0.6;enable-background:new    ;}
	.st19{opacity:0.2319;fill:none;stroke:#FFFFFF;stroke-width:2;stroke-opacity:0.6;enable-background:new    ;}
	.st20{opacity:0.2464;fill:none;stroke:#FFFFFF;stroke-width:2;stroke-opacity:0.6;enable-background:new    ;}
	.st21{opacity:0.2609;fill:none;stroke:#FFFFFF;stroke-width:2;stroke-opacity:0.6;enable-background:new    ;}
	.st22{opacity:0.2754;fill:none;stroke:#FFFFFF;stroke-width:2;stroke-opacity:0.6;enable-background:new    ;}
	.st23{opacity:0.2899;fill:none;stroke:#FFFFFF;stroke-width:2;stroke-opacity:0.6;enable-background:new    ;}
	.st24{opacity:0.3043;fill:none;stroke:#FFFFFF;stroke-width:2;stroke-opacity:0.6;enable-background:new    ;}
	.st25{opacity:0.3188;fill:none;stroke:#FFFFFF;stroke-width:2;stroke-opacity:0.6;enable-background:new    ;}
	.st26{opacity:0.3333;fill:none;stroke:#FFFFFF;stroke-width:2;stroke-opacity:0.6;enable-background:new    ;}
	.st27{opacity:0.3478;fill:none;stroke:#FFFFFF;stroke-width:2;stroke-opacity:0.6;enable-background:new    ;}
	.st28{opacity:0.3623;fill:none;stroke:#FFFFFF;stroke-width:2;stroke-opacity:0.6;enable-background:new    ;}
	.st29{opacity:0.3768;fill:none;stroke:#FFFFFF;stroke-width:2;stroke-opacity:0.6;enable-background:new    ;}
	.st30{opacity:0.3913;fill:none;stroke:#FFFFFF;stroke-width:2;stroke-opacity:0.6;enable-background:new    ;}
	.st31{opacity:0.4058;fill:none;stroke:#FFFFFF;stroke-width:2;stroke-opacity:0.6;enable-background:new    ;}
	.st32{opacity:0.4203;fill:none;stroke:#FFFFFF;stroke-width:2;stroke-opacity:0.6;enable-background:new    ;}
	.st33{opacity:0.4348;fill:none;stroke:#FFFFFF;stroke-width:2;stroke-opacity:0.6;enable-background:new    ;}
	.st34{opacity:0.4493;fill:none;stroke:#FFFFFF;stroke-width:2;stroke-opacity:0.6;enable-background:new    ;}
	.st35{opacity:0.4638;fill:none;stroke:#FFFFFF;stroke-width:2;stroke-opacity:0.6;enable-background:new    ;}
	.st36{opacity:0.4783;fill:none;stroke:#FFFFFF;stroke-width:2;stroke-opacity:0.6;enable-background:new    ;}
	.st37{opacity:0.4928;fill:none;stroke:#FFFFFF;stroke-width:2;stroke-opacity:0.6;enable-background:new    ;}
	.st38{opacity:0.5072;fill:none;stroke:#FFFFFF;stroke-width:2;stroke-opacity:0.6;enable-background:new    ;}
	.st39{opacity:0.5217;fill:none;stroke:#FFFFFF;stroke-width:2;stroke-opacity:0.6;enable-background:new    ;}
	.st40{opacity:0.5362;fill:none;stroke:#FFFFFF;stroke-width:2;stroke-opacity:0.6;enable-background:new    ;}
	.st41{opacity:0.5507;fill:none;stroke:#FFFFFF;stroke-width:2;stroke-opacity:0.6;enable-background:new    ;}
	.st42{opacity:0.5652;fill:none;stroke:#FFFFFF;stroke-width:2;stroke-opacity:0.6;enable-background:new    ;}
	.st43{opacity:0.5797;fill:none;stroke:#FFFFFF;stroke-width:2;stroke-opacity:0.6;enable-background:new    ;}
	.st44{opacity:0.5942;fill:none;stroke:#FFFFFF;stroke-width:2;stroke-opacity:0.6;enable-background:new    ;}
	.st45{opacity:0.6087;fill:none;stroke:#FFFFFF;stroke-width:2;stroke-opacity:0.6;enable-background:new    ;}
	.st46{opacity:0.6232;fill:none;stroke:#FFFFFF;stroke-width:2;stroke-opacity:0.6;enable-background:new    ;}
	.st47{opacity:0.6377;fill:none;stroke:#FFFFFF;stroke-width:2;stroke-opacity:0.6;enable-background:new    ;}
	.st48{opacity:0.6522;fill:none;stroke:#FFFFFF;stroke-width:2;stroke-opacity:0.6;enable-background:new    ;}
	.st49{opacity:0.6667;fill:none;stroke:#FFFFFF;stroke-width:2;stroke-opacity:0.6;enable-background:new    ;}
	.st50{opacity:0.6812;fill:none;stroke:#FFFFFF;stroke-width:2;stroke-opacity:0.6;enable-background:new    ;}
	.st51{opacity:0.6957;fill:none;stroke:#FFFFFF;stroke-width:2;stroke-opacity:0.6;enable-background:new    ;}
	.st52{opacity:0.7101;fill:none;stroke:#FFFFFF;stroke-width:2;stroke-opacity:0.6;enable-background:new    ;}
	.st53{opacity:0.7246;fill:none;stroke:#FFFFFF;stroke-width:2;stroke-opacity:0.6;enable-background:new    ;}
	.st54{opacity:0.7391;fill:none;stroke:#FFFFFF;stroke-width:2;stroke-opacity:0.6;enable-background:new    ;}
	.st55{opacity:0.7536;fill:none;stroke:#FFFFFF;stroke-width:2;stroke-opacity:0.6;enable-background:new    ;}
	.st56{opacity:0.7681;fill:none;stroke:#FFFFFF;stroke-width:2;stroke-opacity:0.6;enable-background:new    ;}
	.st57{opacity:0.7826;fill:none;stroke:#FFFFFF;stroke-width:2;stroke-opacity:0.6;enable-background:new    ;}
	.st58{opacity:0.7971;fill:none;stroke:#FFFFFF;stroke-width:2;stroke-opacity:0.6;enable-background:new    ;}
	.st59{opacity:0.8116;fill:none;stroke:#FFFFFF;stroke-width:2;stroke-opacity:0.6;enable-background:new    ;}
	.st60{opacity:0.8261;fill:none;stroke:#FFFFFF;stroke-width:2;stroke-opacity:0.6;enable-background:new    ;}
	.st61{opacity:0.8406;fill:none;stroke:#FFFFFF;stroke-width:2;stroke-opacity:0.6;enable-background:new    ;}
	.st62{opacity:0.8551;fill:none;stroke:#FFFFFF;stroke-width:2;stroke-opacity:0.6;enable-background:new    ;}
	.st63{opacity:0.8696;fill:none;stroke:#FFFFFF;stroke-width:2;stroke-opacity:0.6;enable-background:new    ;}
	.st64{opacity:0.8841;fill:none;stroke:#FFFFFF;stroke-width:2;stroke-opacity:0.6;enable-background:new    ;}
	.st65{opacity:0.8986;fill:none;stroke:#FFFFFF;stroke-width:2;stroke-opacity:0.6;enable-background:new    ;}
	.st66{opacity:0.913;fill:none;stroke:#FFFFFF;stroke-width:2;stroke-opacity:0.6;enable-background:new    ;}
	.st67{opacity:0.9275;fill:none;stroke:#FFFFFF;stroke-width:2;stroke-opacity:0.6;enable-background:new    ;}
	.st68{opacity:0.942;fill:none;stroke:#FFFFFF;stroke-width:2;stroke-opacity:0.6;enable-background:new    ;}
	.st69{opacity:0.9565;fill:none;stroke:#FFFFFF;stroke-width:2;stroke-opacity:0.6;enable-background:new    ;}
	.st70{opacity:0.971;fill:none;stroke:#FFFFFF;stroke-width:2;stroke-opacity:0.6;enable-background:new    ;}
	.st71{opacity:0.9855;fill:none;stroke:#FFFFFF;stroke-width:2;stroke-opacity:0.6;enable-background:new    ;}
	.st72{fill:none;stroke:#FFFFFF;stroke-width:2;stroke-opacity:0.6;}
	.st73{clip-path:url(#SVGID_4_);}
	.st74{fill:#FFFFFF;}
	.st75{fill:none;stroke:#FFFFFF;stroke-width:2;}
	.st76{font-family:'Roboto-Black';}
	.st77{font-size:63.1167px;}
	.st78{letter-spacing:9;}
	.st79{fill:url(#SVGID_5_);}
	.st80{fill:none;stroke:url(#SVGID_6_);stroke-width:2;stroke-opacity:0.8;}
	.st81{fill:none;stroke:url(#SVGID_7_);stroke-width:2;stroke-opacity:0.8;}
	.st82{fill:none;stroke:url(#SVGID_8_);stroke-width:2;stroke-opacity:0.8;}
	.st83{fill:#F9F9F9;}
	.st84{font-family:'Roboto-Regular';}
	.st85{font-size:46px;}
	.st86{font-size:33px;}
</style>
<rect class="st0" width="1920" height="1080"/>
<g>
	<g>
		<defs>
			<rect id="SVGID_1_" y="-2" width="1920" height="1082"/>
		</defs>
		<clipPath id="SVGID_2_">
			<use xlink:href="#SVGID_1_"  style="overflow:visible;"/>
		</clipPath>
		<g id="Cover" class="st1">
			<rect y="0" class="st2" width="1925.6" height="1089.6"/>
			<g id="neon-light" class="st3">
				<g>
					<path class="st4" d="M1207.2,1995.2c6.6,9,18.5,12.5,28.9,8.5l331.3-124.5c6.2-2.3,11.2-7,14-12.9l213.2-459.1
						c2.2-4.6,2.8-9.9,1.9-15l-79.1-435.5c-1.7-9.3-8.5-16.7-17.5-19.4l-295.3-87.2c-9-2.7-18.8-0.1-25.3,6.8l-305.6,321.8
						c-3.6,3.7-5.8,8.5-6.6,13.6l-73.8,500.3c-1,6.6,0.7,13.2,4.6,18.4L1207.2,1995.2z"/>
					<path class="st5" d="M1158.1,1970c6.1,9.3,17.8,13.4,28.4,10l335.1-105.7c6.3-2,11.6-6.3,14.6-12.2l234.9-443.2
						c2.4-4.6,3.3-9.8,2.8-14.9l-56.3-435.2c-1.2-9.3-7.6-17.2-16.4-20.3l-288.5-102c-8.9-3.1-18.8-1-25.6,5.4l-319.5,302.4
						c-3.8,3.6-6.4,8.2-7.4,13.3L961.4,1659c-1.2,6.5,0,13.1,3.6,18.7L1158.1,1970z"/>
					<path class="st6" d="M1110,1943.5c5.6,9.5,16.9,14.2,27.8,11.5l337.6-86.8c6.4-1.6,11.9-5.8,15.3-11.4l255.4-426.3
						c2.7-4.5,3.9-9.7,3.4-14.8l-33.8-433.9c-0.7-9.4-6.6-17.5-15.3-21.1l-281-116.3c-8.7-3.6-18.6-2-25.8,4.1l-332.2,282.4
						c-4,3.4-6.8,7.8-8.1,12.9L930.7,1625c-1.7,6.4-0.7,13.2,2.7,18.8L1110,1943.5z"/>
					<path class="st7" d="M1063.3,1915.7c5.1,9.8,16.1,15.1,27.1,12.9l339.2-67.9c6.5-1.3,12.2-5.2,15.8-10.6l274.9-408.4
						c2.9-4.3,4.4-9.4,4.2-14.6L1713,995.6c-0.3-9.4-5.8-17.8-14.2-21.9L1426,843.6c-8.4-4-18.5-3-25.9,2.7l-343.7,261.9
						c-4.1,3.1-7.2,7.5-8.8,12.5l-146,469.9c-1.9,6.3-1.4,13.1,1.7,19L1063.3,1915.7z"/>
					<path class="st8" d="M1017.7,1886.7c4.6,10,15.3,15.9,26.3,14.3l339.8-49.1c6.6-0.9,12.5-4.4,16.4-9.7l293.2-389.8
						c3.1-4.2,4.9-9.2,5-14.5l10.2-427.8c0.2-9.3-4.9-18.1-13-22.5L1431.7,844c-8.2-4.5-18.3-4-26,1.3l-354.1,240.9
						c-4.4,3-7.6,7.1-9.4,12l-168.4,457.5c-2.3,6.2-2,13.1,0.7,19.1L1017.7,1886.7z"/>
					<path class="st9" d="M973.4,1856.6c4.1,10.3,14.4,16.6,25.4,15.7l339.4-30.4c6.6-0.6,12.7-3.8,16.9-8.8l310.2-370.2
						c3.4-4,5.4-9,5.8-14.2l31.7-423.1c0.7-9.3-3.8-18.2-11.9-23.2l-254.4-156.3c-7.9-4.9-18-5-26.1-0.1l-363.1,219.6
						c-4.5,2.7-8,6.8-10.1,11.6l-190,444c-2.6,6.1-2.7,12.9-0.3,19.2L973.4,1856.6z"/>
					<path class="st10" d="M930.4,1825.4c3.5,10.4,13.6,17.3,24.6,16.9l337.8-11.9c6.6-0.3,12.9-3.1,17.4-7.9l326.1-350
						c3.6-3.8,5.8-8.7,6.5-14l52.6-417.2c1.1-9.2-2.9-18.5-10.6-23.7l-244.3-168.4c-7.7-5.3-17.7-5.8-25.9-1.4l-370.9,197.9
						c-4.6,2.4-8.4,6.3-10.7,11.1l-210.6,429.6c-3,6-3.4,12.8-1.2,19.2L930.4,1825.4z"/>
					<path class="st11" d="M888.9,1793.4c3.1,10.6,12.6,17.9,23.5,18.2l335.4,6.4c6.6,0.1,13.1-2.4,17.8-7l340.6-329.2
						c3.8-3.7,6.3-8.4,7.3-13.6l73-410.5c1.6-9.2-1.9-18.5-9.4-24.3l-233.7-179.9c-7.4-5.7-17.4-6.8-25.8-2.9l-377.5,176.1
						c-4.8,2.2-8.8,5.9-11.3,10.5l-230.2,414.2c-3.2,5.8-4,12.7-2.1,19.1L888.9,1793.4z"/>
					<path class="st12" d="M848.7,1760.4c2.5,10.7,11.6,18.4,22.5,19.3l332,24.4c6.6,0.5,13.2-1.8,18.2-6.1l353.9-307.7
						c4-3.5,6.8-8.2,8-13.3l92.8-402.6c2.1-9.1-1.1-18.6-8.1-24.7L1445.5,859c-7-6.1-16.9-7.7-25.6-4.2l-382.7,154.1
						c-4.9,1.9-9,5.5-11.8,9.9l-248.7,397.9c-3.5,5.7-4.7,12.5-3.2,18.9L848.7,1760.4z"/>
					<path class="st13" d="M810,1726.6c1.9,10.8,10.6,19.1,21.4,20.4l327.5,42.1c6.6,0.9,13.3-1,18.5-5.1l365.9-285.7
						c4.2-3.2,7.2-7.8,8.7-12.9l112-393.8c2.5-9-0.1-18.7-6.8-25.1l-210.9-201c-6.7-6.4-16.5-8.6-25.3-5.5l-386.7,132
						c-5,1.7-9.4,4.9-12.4,9.3l-266.2,380.7c-3.9,5.5-5.3,12.3-4.2,18.8L810,1726.6z"/>
					<path class="st14" d="M772.7,1692.3c1.4,10.8,9.6,19.4,20.3,21.5l322.2,59.4c6.6,1.2,13.3-0.2,18.8-4.1l376.5-263.4
						c4.3-3.1,7.6-7.5,9.3-12.5l130.6-384.2c3-8.8,0.9-18.5-5.5-25.4l-198.8-210.5c-6.4-6.7-16-9.5-24.9-6.9l-389.4,110
						c-5.1,1.4-9.7,4.5-12.9,8.7l-282.6,362.8c-4.1,5.3-6,11.9-5.1,18.6L772.7,1692.3z"/>
					<path class="st15" d="M737,1657.3c0.8,10.9,8.5,20,19.1,22.5l316,76.2c6.4,1.6,13.4,0.4,19-3l385.8-240.7c4.5-2.8,8.1-7,10-12
						l148.4-373.6c3.5-8.7,1.8-18.4-4.2-25.6l-186.3-219.4c-6-7.1-15.4-10.2-24.5-8.2l-391,88c-5.3,1.2-9.9,4-13.4,8L718,1313.8
						c-4.4,5.1-6.5,11.6-6,18.4L737,1657.3z"/>
					<path class="st16" d="M702.8,1621.8c0.3,10.9,7.5,20.2,17.8,23.3l308.9,92.5c6.4,2,13.3,1.2,19.2-2l393.8-217.6
						c4.7-2.6,8.4-6.7,10.7-11.5l165.5-362.2c3.8-8.4,2.7-18.3-2.9-25.7l-173.5-227.5c-5.6-7.4-14.9-11-23.9-9.4l-391.3,66.1
						c-5.3,0.9-10.1,3.4-13.9,7.3l-311.9,325.1c-4.6,4.9-7.1,11.3-7,18L702.8,1621.8z"/>
					<path class="st17" d="M670.1,1585.9c-0.3,10.8,6.4,20.6,16.5,24.2l301,108.4c6.3,2.3,13.3,1.9,19.3-1.1l400.4-194.5
						c4.8-2.4,8.8-6.2,11.2-11l181.8-350.1c4.3-8.2,3.6-18.1-1.5-25.8l-160.3-234.9c-5.2-7.6-14.2-11.7-23.4-10.7l-390.4,44.4
						c-5.4,0.6-10.4,2.9-14.3,6.7l-324.6,305.3c-4.9,4.6-7.8,11-7.9,17.7L670.1,1585.9z"/>
					<path class="st18" d="M638.9,1549.7c-0.8,10.7,5.3,20.8,15.2,25l292.3,123.7c6.2,2.6,13.2,2.6,19.3,0l405.7-171.2
						c4.9-2.1,9.1-5.8,11.9-10.4l197.3-337.2c4.7-7.9,4.6-17.9-0.2-25.8l-146.8-241.5c-4.8-7.9-13.5-12.4-22.8-12l-388.3,23
						c-5.4,0.3-10.5,2.3-14.7,5.9l-336.5,285.2c-5.2,4.4-8.4,10.6-8.8,17.3L638.9,1549.7z"/>
					<path class="st19" d="M609.2,1513.2c-1.3,10.7,4.2,21,13.8,25.7l282.9,138.4c6.1,2.9,13,3.4,19.4,1.1l409.7-147.9
						c5.1-1.9,9.5-5.3,12.4-9.8l211.9-323.8c5-7.7,5.5-17.6,1.1-25.8l-133.1-247.4c-4.3-8.1-12.9-13.2-22.1-13.1l-385.1,1.8
						c-5.4,0.1-10.7,1.9-15,5.2l-346.9,264.7c-5.4,4.1-8.9,10.2-9.8,16.9L609.2,1513.2z"/>
					<path class="st20" d="M581.1,1476.5c-1.9,10.6,3.1,21.1,12.4,26.2l272.7,152.5c5.9,3.3,12.8,4,19.2,2.1l412.4-124.6
						c5.2-1.6,9.8-4.8,13-9.2l225.6-309.6c5.4-7.5,6.4-17.3,2.5-25.6l-119.1-252.5c-3.9-8.3-12.1-13.8-21.3-14.2l-380.7-18.9
						c-5.4-0.3-10.8,1.3-15.3,4.3l-356.1,243.7c-5.6,3.8-9.4,9.7-10.5,16.4L581.1,1476.5z"/>
					<path class="st21" d="M554.5,1439.8c-2.4,10.4,2,21.1,11,26.8l261.8,165.8c5.7,3.6,12.7,4.7,19.2,3.2l413.7-101.5
						c5.3-1.3,10-4.3,13.5-8.6l238.5-294.9c5.8-7.1,7.2-16.9,3.8-25.4l-105.1-256.8c-3.5-8.5-11.3-14.3-20.5-15.3l-375.2-39.2
						c-5.4-0.6-10.9,0.7-15.6,3.6l-364.1,222.6c-5.7,3.5-9.9,9.2-11.4,15.9L554.5,1439.8z"/>
					<path class="st22" d="M529.4,1403.1c-2.8,10.2,0.9,21.2,9.5,27.3l250.4,178.4c5.5,3.9,12.4,5.4,19.1,4.2l413.8-78.5
						c5.4-1,10.3-3.8,14-7.9l250.4-279.7c6.1-6.8,8-16.5,5.1-25.2l-90.9-260.3c-3-8.6-10.6-14.9-19.6-16.4l-368.7-58.8
						c-5.4-0.9-11,0.1-15.8,2.8l-370.9,201.3c-6,3.3-10.4,8.7-12.2,15.3L529.4,1403.1z"/>
					<path class="st23" d="M505.9,1366.5c-3.4,10.1-0.2,21,8,27.6l238.3,190.4c5.3,4.2,12.1,6.1,18.8,5.2l412.7-55.8
						c5.4-0.8,10.5-3.3,14.5-7.2l261.5-264.1c6.4-6.5,8.8-16,6.3-24.8l-76.8-263.1c-2.6-8.8-9.6-15.5-18.6-17.4l-361.2-78.1
						c-5.4-1.2-11-0.5-15.9,1.9L617,1060.9c-6.2,2.9-10.8,8.3-13,14.7L505.9,1366.5z"/>
					<path class="st24" d="M483.8,1330.1c-3.9,9.8-1.2,21,6.6,28l225.7,201.5c5,4.5,11.8,6.8,18.5,6.2l410.2-33.5
						c5.5-0.4,10.7-2.7,14.9-6.5l271.6-248.1c6.7-6.2,9.6-15.6,7.6-24.4l-62.5-265.1c-2.1-8.9-8.8-15.9-17.7-18.3l-352.8-96.6
						c-5.3-1.5-11-1.1-16.1,1.1L609,1032.9c-6.3,2.6-11.3,7.7-13.7,14L483.8,1330.1z"/>
					<path class="st25" d="M463.1,1294c-4.3,9.5-2.3,20.8,5.1,28.1l212.6,211.9c4.8,4.8,11.4,7.4,18.1,7.2l406.7-11.5
						c5.5-0.1,10.9-2.2,15.2-5.7l280.7-231.6c7.1-5.8,10.4-15,8.8-24l-48.2-266.4c-1.6-8.9-8-16.3-16.6-19.2l-343.3-114.5
						c-5.3-1.8-10.9-1.7-16.2,0.2l-384,137c-6.4,2.3-11.6,7.2-14.5,13.4L463.1,1294z"/>
					<path class="st26" d="M443.8,1258.2c-4.7,9.3-3.4,20.5,3.6,28.2l199,221.3c4.5,5,11,8.1,17.8,8.2l402,10.1
						c5.6,0.1,11.1-1.6,15.5-5l288.8-215c7.3-5.4,11.1-14.4,10-23.4l-34-266.9c-1.1-9.1-7.1-16.7-15.5-20l-333-131.7
						c-5.2-2.1-11-2.3-16.3-0.7l-386,115.6c-6.6,2-12,6.5-15.2,12.6L443.8,1258.2z"/>
					<path class="st27" d="M425.9,1222.8c-5.2,9-4.3,20.2,2.1,28.2l185.1,230.1c4.3,5.4,10.6,8.7,17.4,9.2l396.1,31.1
						c5.6,0.4,11.2-1,15.9-4.2l296-198.1c7.5-5.1,11.9-13.7,11.1-22.9l-19.8-266.6c-0.6-9-6.2-17-14.4-20.8L993.6,860.8
						c-5.1-2.4-10.9-2.9-16.3-1.5l-386.8,94.5c-6.7,1.6-12.4,5.9-15.9,11.8L425.9,1222.8z"/>
					<path class="st28" d="M409.5,1187.9c-5.6,8.7-5.4,19.9,0.6,28.3l170.8,237.9c4,5.6,10.1,9.3,16.9,10.1l389.2,51.5
						c5.6,0.7,11.3-0.5,16.1-3.4l302.2-181c7.8-4.6,12.5-13.1,12.3-22.2l-5.9-265.5c-0.2-9.1-5.2-17.2-13.2-21.4L988.7,858.5
						c-5-2.7-10.8-3.5-16.3-2.5L586,929.5c-6.8,1.3-12.7,5.3-16.5,11.1L409.5,1187.9z"/>
					<path class="st29" d="M394.2,1153.5c-6,8.3-6.3,19.5-0.9,28.2l156.3,244.9c3.7,5.8,9.6,9.7,16.3,11.1l381.2,71.3
						c5.6,1,11.4,0.2,16.4-2.6l307.5-163.8c8-4.3,13.1-12.5,13.3-21.5l8-263.8c0.3-9-4.3-17.5-12-22.1L982.9,856.8
						c-4.8-2.9-10.5-4.1-16.2-3.3l-385,52.8c-6.9,0.9-13,4.7-17,10.3L394.2,1153.5z"/>
					<path class="st30" d="M380.2,1119.9c-6.4,8-7.3,19.1-2.3,27.9l141.4,251.1c3.3,6,9.1,10.3,15.8,11.9l372.2,90.5
						c5.6,1.4,11.4,0.7,16.5-1.7l311.8-146.6c8.2-3.9,13.7-11.7,14.4-20.7l21.6-261.3c0.7-9-3.4-17.7-10.8-22.6L977,855.9
						c-4.7-3.2-10.3-4.7-16.1-4.2l-382.4,32.5c-6.9,0.6-13.2,4-17.5,9.4L380.2,1119.9z"/>
					<path class="st31" d="M367.4,1086.8c-6.7,7.7-8.2,18.6-3.7,27.7L490,1370.9c3.1,6.2,8.6,10.9,15.1,12.8l362.4,108.9
						c5.5,1.7,11.4,1.3,16.7-0.9l315.2-129.4c8.3-3.4,14.2-11,15.4-19.9l34.9-258.2c1.2-8.9-2.4-17.8-9.6-23.2L970.3,855.5
						c-4.5-3.5-10.1-5.3-15.9-5.1l-378.8,12.5c-6.9,0.2-13.4,3.3-18,8.5L367.4,1086.8z"/>
					<path class="st32" d="M355.8,1054.6c-7.1,7.2-9.1,18.1-5.2,27.3l111.2,260.7c2.7,6.3,8,11.3,14.5,13.6l351.6,126.6
						c5.5,2,11.4,2,16.8,0l317.6-112.1c8.4-3,14.7-10.2,16.4-19.1l48-254.2c1.6-8.9-1.6-17.8-8.4-23.6L963,856.2
						c-4.3-3.7-10-5.8-15.7-6l-374.2-7c-6.9-0.1-13.6,2.7-18.4,7.6L355.8,1054.6z"/>
					<path class="st33" d="M345.3,1023.1c-7.4,6.9-9.9,17.5-6.5,27l95.9,264.1c2.3,6.5,7.3,11.7,13.7,14.4l340,143.4
						c5.4,2.3,11.3,2.6,16.9,0.9l319.1-95c8.6-2.6,15.1-9.4,17.3-18.1l60.8-249.8c2.1-8.7-0.6-17.9-7.1-24L954.9,857.3
						c-4.1-4-9.7-6.4-15.4-6.8l-368.6-26c-6.9-0.5-13.7,1.9-18.9,6.7L345.3,1023.1z"/>
					<path class="st34" d="M335.8,992.4c-7.7,6.5-10.8,16.9-7.9,26.4l80.6,266.9c2,6.6,6.8,12.1,12.9,15.2L749,1460.1
						c5.3,2.5,11.2,3.2,16.9,1.8l319.6-78c8.6-2.1,15.6-8.6,18.1-17.2l73.2-244.6c2.6-8.5,0.3-17.8-5.7-24.3L946.2,859.1
						c-4-4.2-9.4-6.9-15.1-7.7l-362-44.4c-6.9-0.9-13.8,1.2-19.2,5.7L335.8,992.4z"/>
					<path class="st35" d="M327.3,962.8c-8,6.1-11.6,16.1-9.2,25.9l65.2,268.5c1.6,6.8,6,12.5,12.1,15.9l314.6,174.4
						c5.1,2.8,11.1,3.8,16.8,2.7l319.3-61.2c8.7-1.7,16-7.9,18.9-16.2l85.2-238.8c3-8.4,1.3-17.6-4.4-24.5l-209-248
						c-3.8-4.5-9-7.5-14.7-8.5l-354.7-62.2c-6.9-1.2-13.9,0.5-19.4,4.7L327.3,962.8z"/>
					<path class="st36" d="M319.6,934c-8.2,5.6-12.3,15.5-10.5,25.3l50,269.5c1.3,6.9,5.4,12.8,11.3,16.5l300.8,188.5
						c5,3.1,10.9,4.3,16.7,3.6l318.2-44.6c8.8-1.2,16.3-7,19.6-15.2l96.8-232.4c3.4-8.2,2.3-17.5-3.1-24.7L926.7,864.3
						c-3.6-4.7-8.6-8-14.4-9.3l-346.3-79.5c-6.8-1.6-14-0.2-19.8,3.7L319.6,934z"/>
					<path class="st37" d="M312.9,906.3c-8.4,5.2-13.1,14.8-11.7,24.6l34.8,269.4c0.9,7,4.7,13.2,10.4,17.2l286.5,201.7
						c4.8,3.5,10.8,4.9,16.6,4.5l316.2-28.4c8.8-0.8,16.6-6.2,20.3-14.1l108.1-225.5c3.9-8,3.1-17.3-1.7-24.7L916,867.5
						c-3.3-4.9-8.2-8.5-13.9-10.1l-337.2-95.9c-6.8-1.9-13.9-0.9-19.9,2.7L312.9,906.3z"/>
					<path class="st38" d="M306.9,879.6c-8.7,4.7-13.7,14-13,23.8l19.8,268.5c0.5,6.9,4,13.4,9.5,17.8L595,1403.7
						c4.7,3.7,10.5,5.6,16.5,5.3l313.4-12.4c8.8-0.4,16.8-5.3,21-13l118.8-218c4.2-7.8,4-17.1-0.5-24.7L904.4,871.3
						c-3-5.2-7.8-9-13.4-10.9L563.7,748.6c-6.6-2.3-13.9-1.7-20.1,1.7L306.9,879.6z"/>
					<path class="st39" d="M301.7,853.9c-8.8,4.3-14.3,13.2-14.2,23l5,266.9c0.1,7,3.2,13.7,8.5,18.3l256.4,225.1
						c4.5,4,10.3,6.1,16.3,6.2l309.8,3.3c8.8,0.2,17-4.5,21.6-11.9l129-210c4.6-7.5,5-16.8,0.9-24.7L892,875.5
						c-2.7-5.3-7.3-9.5-12.9-11.7L562.2,737c-6.5-2.6-13.9-2.4-20.2,0.7L301.7,853.9z"/>
					<path class="st40" d="M297.1,829.4c-9,3.8-14.9,12.5-15.3,22.2l-9.5,264.4c-0.3,7,2.5,13.9,7.6,18.8l240.6,235.4
						c4.3,4.2,10,6.7,16,7l305.4,18.4c8.8,0.6,17.2-3.6,22.1-10.8l138.7-201.6c5-7.2,5.8-16.5,2.2-24.5l-126-278.9
						c-2.5-5.5-6.9-9.9-12.3-12.4l-305.5-141c-6.4-2.9-13.7-3.1-20.3-0.3L297.1,829.4z"/>
					<path class="st41" d="M293.1,806c-9.1,3.4-15.4,11.6-16.3,21.2L253,1088.3c-0.6,7.1,1.7,14,6.5,19.2l224.5,244.5
						c4.1,4.5,9.7,7.3,15.7,8l300.2,33.2c8.7,0.9,17.3-2.7,22.6-9.6l147.9-192.6c5.3-7,6.6-16.1,3.5-24.3l-109.2-282
						c-2.2-5.6-6.3-10.3-11.7-13.1L559.2,717.1c-6.3-3.3-13.6-3.8-20.2-1.4L293.1,806z"/>
					<path class="st42" d="M289.6,783.6c-9.2,2.9-15.9,10.8-17.3,20.2L234.5,1061c-1,7.1,0.9,14.1,5.5,19.6l208.1,252.7
						c3.9,4.7,9.3,7.8,15.3,8.8l294.4,47.5c8.6,1.4,17.3-1.8,22.9-8.5l156.6-183.3c5.6-6.6,7.5-15.8,4.8-24.1l-92.4-284.1
						c-1.8-5.8-5.8-10.6-11-13.8L557.4,708.9c-6-3.6-13.4-4.5-20.2-2.3L289.6,783.6z"/>
					<path class="st43" d="M286.4,762.5c-9.2,2.3-16.3,9.9-18.3,19.3L216.8,1034c-1.4,6.9,0.1,14.2,4.4,19.9l191.6,259.8
						c3.6,4.9,8.9,8.3,14.9,9.6l288.1,61.3c8.5,1.8,17.3-1,23.3-7.2l164.6-173.6c6-6.3,8.3-15.3,6-23.7L834,894.9
						c-1.6-5.9-5.2-11.1-10.3-14.4L555.2,701.7c-6-3.9-13.2-5.1-20.1-3.4L286.4,762.5z"/>
					<path class="st44" d="M283.7,742.5c-9.3,1.9-16.8,9-19.2,18.2l-64.6,246.8c-1.8,6.9-0.6,14.2,3.3,20.2l174.9,266
						c3.4,5.2,8.5,8.8,14.4,10.4l281,74.6c8.3,2.2,17.3,0,23.6-6l172.2-163.5c6.3-6,9-14.8,7.3-23.2l-58.9-285.6
						c-1.2-6-4.7-11.4-9.6-15L552.7,695.6c-5.7-4.3-12.9-5.9-19.8-4.4L283.7,742.5z"/>
					<path class="st45" d="M281.3,723.8c-9.4,1.5-17.1,8-20,17.1L184,981.4c-2.2,6.8-1.4,14.2,2.2,20.3l158.1,271.1
						c3.2,5.3,8.1,9.3,13.9,11.2l273.3,87.3c8.2,2.6,17.3,0.8,23.8-4.8l179-153.2c6.5-5.6,9.8-14.2,8.5-22.8l-42.6-284.7
						c-0.9-6.1-4.1-11.7-8.9-15.6L549.9,690.6c-5.5-4.5-12.7-6.5-19.7-5.4L281.3,723.8z"/>
					<path class="st46" d="M279.1,706.1c-9.3,1-17.3,7.1-20.7,15.9l-89.6,233.7c-2.6,6.6-2.2,14.2,1.1,20.5l141.2,275
						c2.9,5.5,7.7,9.8,13.5,12l265.2,99.4c8,3.1,17.1,1.7,23.9-3.6l185.3-142.5c6.9-5.3,10.5-13.7,9.7-22.3l-26.4-283
						c-0.5-6.2-3.4-12-8-16.2L546.5,686.6c-5.2-4.8-12.4-7.2-19.4-6.4L279.1,706.1z"/>
					<path class="st47" d="M277.1,689.6c-9.4,0.5-17.6,6.2-21.4,14.8L154.3,930.6c-3,6.5-3,14,0,20.5l124.4,278.1
						c2.6,5.8,7.2,10.3,12.9,12.8L548,1353c7.8,3.4,16.9,2.5,24-2.4L763,1219c7.1-4.9,11.2-13,10.9-21.7l-10.6-280.4
						c-0.2-6.2-2.8-12.2-7.2-16.6L542.6,683.5c-5-5.1-11.9-7.8-19.1-7.4L277.1,689.6z"/>
					<path class="st48" d="M275.1,674.3c-9.3,0-17.7,5.3-22,13.5L140.5,906c-3.3,6.4-3.7,13.9-1.2,20.6L247,1206.7
						c2.2,5.8,6.6,10.7,12.2,13.5L506.5,1342c7.7,3.8,16.7,3.4,24-1.1l196-120.6c7.3-4.5,11.8-12.4,12-21l4.9-276.9
						c0.1-6.3-2.1-12.4-6.3-17.1l-199-223.9c-4.7-5.3-11.6-8.4-18.7-8.4L275.1,674.3z"/>
					<path class="st49" d="M273.1,660.2c-9.3-0.4-18,4.4-22.6,12.3L127.3,882.1c-3.7,6.2-4.5,13.7-2.2,20.5l91,281.2
						c2,6.1,6.1,11.1,11.7,14.1L465.5,1330c7.5,4.1,16.4,4.1,23.9,0.1l200.4-109.2c7.5-4.1,12.4-11.7,13-20.2l19.9-272.6
						c0.5-6.3-1.4-12.6-5.5-17.5L533,680.2c-4.5-5.7-11.2-9-18.3-9.3L273.1,660.2z"/>
					<path class="st50" d="M271.1,647.3c-9.1-0.9-18,3.4-23.1,11.1L114.7,858.7c-4.1,6-5.2,13.5-3.4,20.4l74.6,281.2
						c1.6,6.2,5.5,11.4,10.9,14.8l227.7,141.7c7.2,4.5,16.2,5,23.9,1.3l204.2-97.9c7.7-3.7,12.9-11,14-19.5l34.6-267.5
						c0.8-6.3-0.7-12.7-4.5-17.9L527.3,679.8c-4.2-5.9-10.7-9.6-17.9-10.2L271.1,647.3z"/>
					<path class="st51" d="M269,635.4c-9.1-1.3-18,2.4-23.5,9.8L102.8,835.9c-4.3,5.8-6,13.2-4.5,20.3l58.4,280.4
						c1.4,6.3,5,11.8,10.2,15.4l217.4,150.7c6.9,4.8,15.9,5.7,23.7,2.5l207.3-86.4c7.9-3.2,13.5-10.3,15-18.7l48.7-261.5
						c1.2-6.3-0.1-12.8-3.5-18.2L520.8,680.1c-3.9-6.1-10.2-10.1-17.4-11.1L269,635.4z"/>
					<path class="st52" d="M266.6,624.7c-8.9-1.8-18.1,1.6-23.9,8.5L91.2,813.8c-4.7,5.6-6.7,12.9-5.6,20l42.6,278.7
						c1,6.4,4.4,12.1,9.4,16l206.8,158.9c6.7,5.1,15.5,6.6,23.5,3.7l209.8-74.8c7.9-2.8,14-9.5,16-17.7L656,943.6
						c1.5-6.3,0.6-12.9-2.6-18.5L513.5,681.4c-3.6-6.3-9.7-10.6-16.8-12.1L266.6,624.7z"/>
					<path class="st53" d="M264.1,615c-8.8-2.1-18,0.6-24.2,7.2L80.3,792.5c-5,5.3-7.4,12.5-6.7,19.7l27.2,276
						c0.7,6.5,3.7,12.4,8.7,16.6l196,166.4c6.4,5.5,15.1,7.3,23.2,4.8l211.6-63.2c8.1-2.4,14.4-8.7,16.9-16.8l75.3-247.5
						c1.9-6.2,1.3-12.9-1.7-18.8L505.5,683.2c-3.3-6.5-9.2-11.2-16.2-12.9L264.1,615z"/>
					<path class="st54" d="M261.2,606.4c-8.5-2.6-17.9-0.3-24.4,5.9l-167,159.4c-5.3,5.1-8.1,12.1-7.7,19.4l12.1,272.5
						c0.3,6.6,3.1,12.7,7.8,17.2l184.9,173.4c6.1,5.7,14.7,8,22.8,6l212.9-51.7c8.2-2,14.8-7.9,17.7-15.9L608,953.2
						c2.3-6.1,2.1-12.9-0.7-18.9L496.7,685.8c-2.9-6.6-8.6-11.6-15.6-13.7L261.2,606.4z"/>
					<path class="st55" d="M257.9,598.9c-8.4-3-17.7-1.2-24.5,4.6L59.7,751.7c-5.5,4.8-8.8,11.7-8.9,19l-2.5,268.2
						c0,6.6,2.5,12.9,7,17.6L229.1,1236c5.8,6,14.2,8.6,22.4,7.1l213.3-40c8.2-1.5,15.1-7.1,18.4-14.8l99.4-230.8
						c2.6-6.1,2.8-12.9,0.4-19L487,688.8c-2.6-6.8-8.1-12.1-14.9-14.5L257.9,598.9z"/>
					<path class="st56" d="M254.2,592.3c-8.2-3.3-17.5-2-24.6,3.3L50,732.5c-5.8,4.5-9.4,11.2-9.9,18.5l-16.6,263.1
						c-0.5,6.6,1.8,13.1,6.1,18.1l162.3,184.9c5.5,6.2,13.7,9.3,21.9,8.2l213.5-28.6c8.3-1.1,15.4-6.3,19.1-13.7L557,961.5
						c3-6,3.5-12.8,1.4-19.1l-81.9-249.9c-2.3-6.9-7.5-12.5-14.3-15.2L254.2,592.3z"/>
					<path class="st57" d="M250,586.6c-7.9-3.7-17.3-2.9-24.6,2L40.4,713.9c-6,4.1-10.1,10.6-11,18L-0.8,989.1
						c-0.8,6.6,1.1,13.3,5.2,18.5l150.9,189.8c5.2,6.5,13.2,10,21.4,9.3l212.8-17.2c8.3-0.7,15.7-5.4,19.8-12.6l121-211.8
						c3.3-5.7,4.2-12.6,2.5-19.1l-67.9-249.4c-1.9-7.1-6.8-12.9-13.5-16L250,586.6z"/>
					<path class="st58" d="M245.4,581.9c-7.7-4.1-17-3.8-24.4,0.7L31.3,696.1c-6.3,3.8-10.6,10.1-11.9,17.4l-43.2,250.7
						c-1.1,6.6,0.4,13.4,4.3,18.8l139.4,194c4.8,6.7,12.6,10.5,20.9,10.3l211.6-6c8.2-0.3,15.9-4.5,20.4-11.5l130.6-201.6
						c3.6-5.6,4.9-12.5,3.5-19l-54.2-248c-1.6-7.2-6.2-13.2-12.7-16.7L245.4,581.9z"/>
					<path class="st59" d="M240.2,578.1c-7.4-4.4-16.6-4.6-24.3-0.6L22.3,679c-6.5,3.4-11.3,9.5-12.9,16.8l-55.6,243.5
						c-1.5,6.6-0.3,13.6,3.4,19.2l127.8,197.4c4.4,6.9,12.1,11.1,20.2,11.3l209.8,5.1c8.2,0.1,16-3.6,20.9-10.3l139.6-191
						c4-5.5,5.7-12.4,4.5-19l-40.9-245.9c-1.2-7.3-5.5-13.6-11.8-17.4L240.2,578.1z"/>
					<path class="st60" d="M234.3,575c-7.1-4.8-16.2-5.4-24.1-1.9L13.5,662.7c-6.8,3.1-11.8,8.9-13.8,16l-67.4,235.8
						c-1.9,6.5-1,13.5,2.4,19.4L51,1134.2c4.1,7.1,11.5,11.6,19.6,12.3l207.4,15.9c8.1,0.7,16.1-2.7,21.4-9.1l147.7-179.9
						c4.3-5.3,6.3-12,5.6-18.8l-27.9-243.1c-0.9-7.3-4.9-13.9-11-17.9L234.3,575z"/>
					<path class="st61" d="M227.8,572.7c-6.9-5-15.9-6.2-23.8-3.1L4.9,647c-6.9,2.7-12.3,8.3-14.7,15.3l-78.4,227.4
						c-2.2,6.5-1.8,13.6,1.5,19.7l105,202.4c3.8,7.2,10.8,12.1,18.9,13.2l204.6,26.6c8.1,1.1,16.2-1.9,21.7-7.9L418.5,975
						c4.7-5.1,7.1-11.8,6.6-18.6l-15.3-239.6c-0.5-7.4-4.2-14.1-10.1-18.5L227.8,572.7z"/>
					<path class="st62" d="M220.6,571.2c-6.5-5.3-15.4-6.9-23.5-4.3L-3.8,632.3c-7,2.3-12.7,7.6-15.6,14.5l-88.8,218.5
						c-2.6,6.4-2.4,13.6,0.4,19.8l93.7,203.8c3.4,7.4,10.1,12.6,18.1,14.1l201.1,37c8,1.4,16.2-1,22-6.7L389,976.6
						c5-4.8,7.7-11.5,7.6-18.4l-3.2-235.4c-0.1-7.4-3.5-14.4-9.3-19L220.6,571.2z"/>
					<path class="st63" d="M212.7,570.3c-6.2-5.6-14.8-7.6-23-5.5l-201.9,53.3c-7.2,1.9-13.2,6.9-16.3,13.6L-127,840.9
						c-3,6.3-3.2,13.5-0.6,20l82.5,204.8c3.1,7.5,9.4,13,17.3,14.9l197.2,47.1c7.8,1.8,16.1-0.1,22.2-5.4l167.6-145
						c5.2-4.6,8.4-11.1,8.7-18.1l8.5-230.7c0.3-7.4-2.8-14.6-8.3-19.5L212.7,570.3z"/>
					<path class="st64" d="M204,570.1c-5.9-5.8-14.4-8.3-22.5-6.6l-202.2,41.2c-7.3,1.5-13.6,6.2-17.1,12.7l-107.5,199.5
						c-3.4,6.2-3.9,13.5-1.6,20.1l71.5,205c2.6,7.6,8.8,13.4,16.4,15.7l192.7,56.9c7.7,2.3,16,0.7,22.4-4.2l172.6-132.9
						c5.6-4.3,9.1-10.7,9.7-17.7l19.6-225.4c0.6-7.4-2.1-14.8-7.4-20L204,570.1z"/>
					<path class="st65" d="M194.6,570.4c-5.6-6-13.8-8.9-22-7.8l-201.9,29.4c-7.4,1.1-14,5.4-17.8,11.8l-115.7,189.4
						c-3.7,6-4.6,13.3-2.6,20.2l60.7,204.7c2.3,7.6,8,13.7,15.6,16.4l187.8,66.4c7.5,2.7,15.8,1.6,22.4-2.9l177-120.7
						c5.9-4,9.7-10.3,10.7-17.3L339,740.3c1-7.4-1.3-14.8-6.4-20.4L194.6,570.4z"/>
					<path class="st66" d="M184.3,571.2c-5.3-6.2-13.2-9.6-21.3-8.8L-37.9,580c-7.5,0.6-14.2,4.6-18.4,10.8l-123.1,178.9
						c-4,5.9-5.4,13.2-3.7,20.1l50.1,203.9c1.9,7.7,7.4,14,14.7,17.1l182.4,75.5c7.3,3,15.7,2.4,22.6-1.7L267,976.1
						c6.1-3.7,10.4-9.8,11.7-16.8l40.2-213.1c1.4-7.3-0.6-14.9-5.3-20.7L184.3,571.2z"/>
					<path class="st67" d="M173.2,572.5c-4.9-6.4-12.6-10.1-20.6-9.9l-199.1,6.1c-7.5,0.2-14.5,3.8-19.1,9.8l-129.7,168.2
						c-4.4,5.7-6.1,13-4.7,20.1l39.7,202.4c1.5,7.7,6.6,14.3,13.7,17.7l176.6,84.2c7.1,3.4,15.5,3.3,22.5-0.5l182.9-96.2
						c6.4-3.3,11-9.3,12.7-16.3l49.8-206.3c1.8-7.3,0.1-15-4.4-21L173.2,572.5z"/>
					<path class="st68" d="M161.3,574.2c-4.5-6.6-11.9-10.6-20-10.8l-196.7-5.3c-7.5-0.2-14.8,3-19.7,8.7l-135.5,157.3
						c-4.7,5.5-6.9,12.8-5.8,20l29.8,200.5c1.2,7.8,5.9,14.5,12.8,18.3l170.4,92.6c6.9,3.7,15.1,4,22.3,0.8l184.7-84
						c6.6-3,11.6-8.7,13.7-15.8L276,757.5c2.1-7.2,0.9-15-3.3-21.2L161.3,574.2z"/>
					<path class="st69" d="M148.5,576.2c-4.2-6.7-11.2-11.1-19.2-11.7l-193.8-16.3c-7.5-0.6-14.9,2.1-20.1,7.6l-140.7,146.3
						c-5.1,5.3-7.6,12.5-6.9,19.9l20,198.2c0.7,7.8,5.2,14.7,11.8,18.8l163.9,100.6c6.6,4.1,14.8,4.8,22.1,2l185.8-71.8
						c6.8-2.6,12.2-8.2,14.6-15.1L253,763.1c2.5-7.1,1.6-15-2.3-21.4L148.5,576.2z"/>
					<path class="st70" d="M134.9,578.5c-3.8-6.9-10.6-11.5-18.3-12.6l-190.1-27.1c-7.5-1.1-15,1.3-20.6,6.5l-145,135.1
						c-5.4,5-8.3,12.3-8,19.7l10.7,195.3c0.4,7.8,4.4,14.8,10.8,19.2l157,108.1c6.4,4.4,14.5,5.6,21.8,3.2l186.1-59.7
						c7.1-2.2,12.8-7.6,15.6-14.5l74.6-183.7c2.8-7,2.3-15-1.4-21.5L134.9,578.5z"/>
					<path class="st71" d="M120.4,580.9c-3.4-7-9.9-11.9-17.5-13.5l-185.9-37.6c-7.4-1.5-15.2,0.4-20.9,5.3l-148.5,124
						c-5.8,4.8-9,12-9,19.5l1.7,191.9c0,7.6,3.7,14.9,9.8,19.6l149.7,115.3c6.1,4.7,14,6.4,21.4,4.3l185.7-47.8
						c7.3-1.9,13.3-6.9,16.5-13.6l81.5-175.5c3.2-6.9,3.1-14.8-0.2-21.7L120.4,580.9z"/>
					<path class="st72" d="M105.1,583.7c-3.1-7.1-9.2-12.2-16.5-14.2l-181.3-47.7c-7.4-2-15.2-0.4-21.3,4.2l-151.2,112.8
						c-6.1,4.5-9.7,11.6-10.1,19.1l-7.1,188.2c-0.3,7.6,2.9,15,8.7,20L-131.6,988c5.8,4.9,13.6,7.1,21,5.6L74,957.4
						c7.5-1.5,13.8-6.2,17.4-12.9l87.8-167.1c3.6-6.7,3.8-14.7,0.8-21.7L105.1,583.7z"/>
				</g>
			</g>
			<g>
				<g>
					<g>
						<defs>
							<rect id="SVGID_3_" x="1394.6" y="767.2" width="58.2" height="51.8"/>
						</defs>
						<clipPath id="SVGID_4_">
							<use xlink:href="#SVGID_3_"  style="overflow:visible;"/>
						</clipPath>
						<g id="Frame" class="st73">
							<path id="Vector" class="st74" d="M1423.7,798.4c2.9,0,5.2-2.3,5.2-5.2s-2.3-5.2-5.2-5.2s-5.2,2.3-5.2,5.2
								S1420.9,798.4,1423.7,798.4z"/>
							<g id="Group">
								<path id="Vector_2" class="st75" d="M1423.7,803.8c15.4,0,27.8-4.8,27.8-10.6s-12.5-10.6-27.8-10.6s-27.8,4.8-27.8,10.6
									S1408.4,803.8,1423.7,803.8z"/>
								<path id="Vector_3" class="st75" d="M1414.5,798.5c7.7,13.3,18,21.7,23.1,18.8s3-16.1-4.7-29.5s-18-21.7-23.1-18.8
									C1404.7,772,1406.8,785.1,1414.5,798.5z"/>
								<path id="Vector_4" class="st75" d="M1414.5,787.8c-7.7,13.3-9.8,26.4-4.7,29.5c5.1,2.9,15.4-5.5,23.1-18.8
									c7.7-13.3,9.8-26.4,4.7-29.5C1432.5,766.1,1422.2,774.5,1414.5,787.8z"/>
							</g>
						</g>
					</g>
				</g>
				<g id="Frame_2">
					<path id="Vector_5" class="st74" d="M1344.7,771.2c-12.9,0.4-16.8,9.7-17.7,14.7c1.1-1.9,4.8-5.9,10.1-5.9
						c6.2,0,10.9,6.9,13.8,9.1c3.5,2.6,10.5,6.1,19.8,3.3c7.4-2.2,10.8-10.1,11.5-13.8c-3.6,4.8-9,7.8-15.7,4.3
						C1362,780.5,1358.5,770.7,1344.7,771.2z"/>
					<path id="Vector_6" class="st74" d="M1326.4,793.3c-12.9,0.4-16.8,9.7-17.7,14.7c1.2-1.9,4.8-5.9,10.1-5.9
						c6.2,0,10.9,6.9,13.8,9.1c3.5,2.6,10.5,6.1,19.8,3.3c7.4-2.2,10.8-10.1,11.5-13.8c-3.6,4.8-9,7.8-15.7,4.3
						C1343.7,802.6,1340.2,792.7,1326.4,793.3z"/>
				</g>
			</g>
			<g>
				<g>
					<g id="Group_2">
						<path id="Vector_7" class="st74" d="M512,799.3v18c0,1.2-0.9,2.1-2.1,2.1H505v-12l-8.5,6.3l-8.5-6.3v12h-4.9
							c-0.3,0-0.6-0.1-0.8-0.2c-0.3-0.1-0.5-0.3-0.7-0.5s-0.4-0.4-0.5-0.7s-0.2-0.5-0.2-0.8v-18c0-2.6,3-4.1,5.1-2.5l2,1.5l8.5,6.3
							l8.5-6.3l2-1.5C509,795.2,512,796.7,512,799.3z"/>
					</g>
					<g>
						<path id="Vector_8" class="st74" d="M592.1,807.7c0-7.1-5.8-12.9-12.9-12.9c-7.1,0-12.9,5.8-12.9,12.9
							c0,6.4,4.7,11.8,10.9,12.8v-9h-3.3v-3.7h3.3V805c0-3.2,1.9-5,4.9-5c1.4,0,2.9,0.3,2.9,0.3v3.2h-1.6c-1.6,0-2.1,1-2.1,2v2.4
							h3.6l-0.6,3.7h-3v9C587.4,819.5,592.1,814.1,592.1,807.7z"/>
					</g>
					<g>
						<path id="Vector_9" class="st74" d="M549.3,795.5H529c-0.9,0-1.7,0.8-1.7,1.7v20.3c0,0.9,0.8,1.7,1.7,1.7h20.3
							c0.9,0,1.7-0.8,1.7-1.7v-20.3C551,796.2,550.2,795.5,549.3,795.5z M534.5,815.8H531v-11.3h3.5V815.8L534.5,815.8z
							 M532.7,802.9c-1.1,0-2-0.9-2-2c0-1.1,0.9-2,2-2s2,0.9,2,2C534.7,802,533.8,802.9,532.7,802.9L532.7,802.9z M547.6,815.8h-3.5
							v-5.5c0-1.3,0-3-1.8-3s-2.1,1.4-2.1,2.9v5.6h-3.5v-11.3h3.4v1.5l0,0c0.5-0.9,1.6-1.8,3.3-1.8c3.6,0,4.2,2.3,4.2,5.4
							L547.6,815.8L547.6,815.8z"/>
					</g>
				</g>
			</g>
			<text transform="matrix(0.9982 0 0 1 480.6519 345.7427)" class="st74 st76 st77 st78">Adnan al-emran</text>
			<g id="Color">
				
					<linearGradient id="SVGID_5_" gradientUnits="userSpaceOnUse" x1="594.4261" y1="-54.475" x2="1317.1244" y2="559.9496" gradientTransform="matrix(1 0 0 1 0 288)">
					<stop  offset="0" style="stop-color:#FFFFFF;stop-opacity:0.4"/>
					<stop  offset="1" style="stop-color:#FFFFFF;stop-opacity:0.1"/>
				</linearGradient>
				<path class="st79" d="M462.1,239h1007.1c13.8,0,25,11.2,25,25v570.1c0,13.8-11.2,25-25,25H462.1c-13.8,0-25-11.2-25-25V264.1
					C437.1,250.2,448.3,239,462.1,239z"/>
				
					<linearGradient id="SVGID_6_" gradientUnits="userSpaceOnUse" x1="493.9116" y1="-101.8743" x2="897.1974" y2="208.4551" gradientTransform="matrix(1 0 0 1 0 288)">
					<stop  offset="0" style="stop-color:#FFFFFF"/>
					<stop  offset="1" style="stop-color:#FFFFFF;stop-opacity:0"/>
				</linearGradient>
				<path class="st80" d="M462.1,240h1007.1c13.3,0,24,10.7,24,24v570.1c0,13.3-10.7,24-24,24H462.1c-13.3,0-24-10.7-24-24V264.1
					C438.1,250.7,448.8,240,462.1,240z"/>
				
					<linearGradient id="SVGID_7_" gradientUnits="userSpaceOnUse" x1="525.4135" y1="647.0898" x2="755.8722" y2="445.0095" gradientTransform="matrix(1 0 0 1 0 288)">
					<stop  offset="0" style="stop-color:#FF00F6;stop-opacity:0.3"/>
					<stop  offset="1" style="stop-color:#FF1CF7;stop-opacity:0"/>
				</linearGradient>
				<path class="st81" d="M462.1,240h1007.1c13.3,0,24,10.7,24,24v570.1c0,13.3-10.7,24-24,24H462.1c-13.3,0-24-10.7-24-24V264.1
					C438.1,250.7,448.8,240,462.1,240z"/>
				
					<linearGradient id="SVGID_8_" gradientUnits="userSpaceOnUse" x1="1469.3253" y1="359.0263" x2="607.6499" y2="191.5074" gradientTransform="matrix(1 0 0 1 0 288)">
					<stop  offset="0" style="stop-color:#00F0FF;stop-opacity:0.3"/>
					<stop  offset="1" style="stop-color:#000000;stop-opacity:0"/>
				</linearGradient>
				<path class="st82" d="M462.1,240h1007.1c13.3,0,24,10.7,24,24v570.1c0,13.3-10.7,24-24,24H462.1c-13.3,0-24-10.7-24-24V264.1
					C438.1,250.7,448.8,240,462.1,240z"/>
			</g>
		</g>
	</g>
</g>
<path class="st74" d="M1254.6,776.9c0-4.3,3.5-7.7,7.7-7.7h7.7c1.4,0,2.6,1.2,2.6,2.6c0,1.4-1.2,2.6-2.6,2.6h-7.7
	c-1.4,0-2.6,1.2-2.6,2.6v2.6c0,1.4,1.2,2.6,2.6,2.6h2.6c4.3,0,7.7,3.5,7.7,7.7v2.6c0,4.3-3.5,7.7-7.7,7.7h-7.7
	c-1.4,0-2.6-1.2-2.6-2.6s1.2-2.6,2.6-2.6h7.7c1.4,0,2.6-1.2,2.6-2.6v-2.6c0-1.4-1.2-2.6-2.6-2.6h-2.6c-4.3,0-7.7-3.5-7.7-7.7V776.9z
	 M1252.1,771.8c0-1.4-1.2-2.6-2.6-2.6s-2.6,1.2-2.6,2.6v20.6c0,1.4-1.2,2.6-2.6,2.6h-5.2c-1.4,0-2.6,1.2-2.6,2.6s1.2,2.6,2.6,2.6
	h5.2c4.3,0,7.7-3.5,7.7-7.7L1252.1,771.8L1252.1,771.8z"/>
<path class="st74" d="M1223.2,768.5c0-6.5,5.3-11.8,11.8-11.8h33.2c6.5,0,11.8,5.3,11.8,11.8v33.1c0,6.5-5.3,11.8-11.8,11.8H1235
	c-6.5,0-11.8-5.3-11.8-11.8V768.5z M1235.1,761.4c-3.9,0-7.1,3.2-7.1,7.1v33.1c0,3.9,3.2,7.1,7.1,7.1h33.2c3.9,0,7.1-3.2,7.1-7.1
	v-33.1c0-3.9-3.2-7.1-7.1-7.1H1235.1z"/>
<text transform="matrix(1 0 0 1 468.3999 760.5644)" class="st83 st84 st85">MERN stack web developer</text>
<text transform="matrix(1 0 0 1 594.6403 810.4394)" class="st74 st84 st86">/adnanalemran</text>
</svg>
